<svg xmlns="http://www.w3.org/2000/svg" xmlns:xlink="http://www.w3.org/1999/xlink" viewBox="0 0 428.06 448.04"><defs><linearGradient id="a" x1="110.55" x2="142.03" y1="139.46" y2="139.46" gradientTransform="rotate(96 224.082 308.425)" gradientUnits="userSpaceOnUse"><stop offset="0"/><stop offset="0"/><stop offset="0" stop-color="#070707"/><stop offset=".45" stop-color="#464646"/><stop offset=".59" stop-color="#383838"/><stop offset=".85" stop-color="#131313"/><stop offset=".98"/></linearGradient><linearGradient xlink:href="#a" id="b" x1="108.16" x2="139.64" y1="125.47" y2="125.47" gradientTransform="rotate(88 223.83 308.22)"/><linearGradient xlink:href="#a" id="c" x1="183.88" x2="215.37" y1="24.17" y2="24.17" gradientTransform="rotate(8 220.553 308.778)"/><linearGradient xlink:href="#a" id="d" x1="196.88" x2="228.37" y1="22.46" y2="22.46"/><linearGradient xlink:href="#a" id="e" x1="209.48" x2="240.97" y1="22" y2="22" gradientTransform="rotate(-8 224.416 304.9)"/><linearGradient xlink:href="#a" id="f" x1="223.08" x2="254.57" y1="22.96" y2="22.96" gradientTransform="rotate(-16 226.059 308.475)"/><linearGradient xlink:href="#a" id="g" x1="236.16" x2="267.65" y1="27.12" y2="27.12" gradientTransform="rotate(-24 223.42 309.723)"/><linearGradient xlink:href="#a" id="h" x1="248.01" x2="279.5" y1="32.25" y2="32.25" gradientTransform="rotate(-32 223.245 309.033)"/><linearGradient xlink:href="#a" id="i" x1="258.85" x2="290.34" y1="38.9" y2="38.9" gradientTransform="rotate(-40 223.17 308.347)"/><linearGradient xlink:href="#a" id="j" x1="269.68" x2="301.16" y1="46.86" y2="46.86" gradientTransform="rotate(-48 223.74 308.942)"/><linearGradient xlink:href="#a" id="k" x1="278.62" x2="310.11" y1="55.95" y2="55.95" gradientTransform="rotate(-56 224.126 308.618)"/><linearGradient xlink:href="#a" id="l" x1="285.83" x2="317.32" y1="66.24" y2="66.24" gradientTransform="rotate(-64 224.187 308.09)"/><linearGradient xlink:href="#a" id="m" x1="291.32" x2="322.81" y1="78.11" y2="78.11" gradientTransform="rotate(-72 223.686 307.84)"/><linearGradient xlink:href="#a" id="n" x1="296" x2="327.49" y1="90.97" y2="90.97" gradientTransform="rotate(-80 223.5 308.325)"/><linearGradient xlink:href="#a" id="o" x1="298.79" x2="330.28" y1="103.18" y2="103.18" gradientTransform="rotate(-88 223.914 308.147)"/><linearGradient xlink:href="#a" id="p" x1="300.1" x2="331.59" y1="116.28" y2="116.28" gradientTransform="rotate(-96 224.118 308.394)"/><linearGradient xlink:href="#a" id="q" x1="298.88" x2="330.37" y1="129.15" y2="129.15" gradientTransform="rotate(-104 224.066 308.208)"/><linearGradient xlink:href="#a" id="r" x1="295.88" x2="327.37" y1="141.89" y2="141.89" gradientTransform="rotate(-112 223.973 308.121)"/><linearGradient xlink:href="#a" id="s" x1="291.42" x2="322.9" y1="154.61" y2="154.61" gradientTransform="rotate(-120 223.868 308.376)"/><linearGradient xlink:href="#a" id="t" x1="284.7" x2="316.19" y1="166.01" y2="166.01" gradientTransform="rotate(-128 223.66 308.204)"/><linearGradient xlink:href="#a" id="u" x1="277.83" x2="309.32" y1="175.87" y2="175.87" gradientTransform="rotate(-136 224.227 308.083)"/><linearGradient xlink:href="#a" id="v" x1="268.45" x2="299.94" y1="185.54" y2="185.54" gradientTransform="rotate(-144 224.037 308.186)"/><linearGradient xlink:href="#a" id="w" x1="258.5" x2="289.99" y1="193.5" y2="193.5" gradientTransform="rotate(-152 224.228 308.22)"/><linearGradient xlink:href="#a" id="x" x1="246.35" x2="277.83" y1="200.29" y2="200.29" gradientTransform="rotate(-160 223.809 308.287)"/><linearGradient xlink:href="#a" id="y" x1="234.76" x2="266.25" y1="205.33" y2="205.33" gradientTransform="rotate(-168 224.077 308.436)"/><linearGradient xlink:href="#a" id="z" x1="221.69" x2="253.17" y1="207.35" y2="207.35" gradientTransform="rotate(-176 223.927 307.905)"/><linearGradient xlink:href="#a" id="A" x1="208.02" x2="239.51" y1="209.29" y2="209.29" gradientTransform="rotate(176 223.591 308.239)"/><linearGradient xlink:href="#a" id="B" x1="196.03" x2="227.51" y1="209.11" y2="209.11" gradientTransform="rotate(168 224.13 308.384)"/><linearGradient xlink:href="#a" id="C" x1="182.94" x2="214.42" y1="206.2" y2="206.2" gradientTransform="rotate(160 223.977 308.118)"/><linearGradient xlink:href="#a" id="D" x1="170.22" x2="201.7" y1="202.87" y2="202.87" gradientTransform="rotate(152 223.91 308.537)"/><linearGradient xlink:href="#a" id="E" x1="158.53" x2="190.01" y1="196.66" y2="196.66" gradientTransform="rotate(144 223.878 308.345)"/><linearGradient xlink:href="#a" id="F" x1="147.42" x2="178.89" y1="189.53" y2="189.53" gradientTransform="rotate(136 223.772 308.54)"/><linearGradient xlink:href="#a" id="G" x1="138.4" x2="169.89" y1="179.83" y2="179.83" gradientTransform="rotate(128 223.887 307.97)"/><linearGradient xlink:href="#a" id="H" x1="130.18" x2="161.67" y1="170.26" y2="170.26" gradientTransform="rotate(120 224.062 308.175)"/><linearGradient xlink:href="#a" id="I" x1="122.85" x2="154.34" y1="159.06" y2="159.06" gradientTransform="rotate(112 223.805 308.284)"/><linearGradient xlink:href="#a" id="J" x1="116.33" x2="149.13" y1="147.38" y2="147.38" gradientTransform="rotate(104 223.894 308.371)"/><linearGradient xlink:href="#a" id="K" x1="113.16" x2="144.64" y1="108.24" y2="108.24" gradientTransform="rotate(80 223.998 307.805)"/><linearGradient xlink:href="#a" id="L" x1="114.51" x2="146" y1="95.03" y2="95.03" gradientTransform="rotate(72 223.52 307.996)"/><linearGradient xlink:href="#a" id="M" x1="117.92" x2="149.41" y1="83.07" y2="83.07" gradientTransform="rotate(64 223.773 308.505)"/><linearGradient xlink:href="#a" id="N" x1="123.66" x2="155.14" y1="71.56" y2="71.56" gradientTransform="rotate(56 224.303 308.425)"/><linearGradient xlink:href="#a" id="O" x1="131.03" x2="162.51" y1="60.58" y2="60.58" gradientTransform="rotate(48 224.616 308.044)"/><linearGradient xlink:href="#a" id="P" x1="139.62" x2="171.11" y1="50.04" y2="50.04" gradientTransform="rotate(40 224.017 307.473)"/><linearGradient xlink:href="#a" id="Q" x1="149.36" x2="180.86" y1="41.79" y2="41.79" gradientTransform="rotate(32 224.7 307.55)"/><linearGradient xlink:href="#a" id="R" x1="160.1" x2="191.59" y1="34.8" y2="34.8" gradientTransform="rotate(24 225.367 307.732)"/><linearGradient xlink:href="#a" id="S" x1="173.35" x2="202.45" y1="28.92" y2="28.92" gradientTransform="rotate(16 224.145 310.36)"/><linearGradient xlink:href="#a" id="T" x1="74.81" x2="353.55" y1="215.06" y2="215.06"/><linearGradient xlink:href="#a" id="U" x1="247.43" x2="271.4" y1="148.52" y2="148.52"/><linearGradient xlink:href="#a" id="V" x1="154.93" x2="280.44" y1="106.54" y2="228.17"/></defs><path d="m334.98 204.35-227.63 9.29c.42 30.55.93 64.74-.34 102.93.47 30.77-.08 64.42-2.8 101.22.32.01.64.03.98.04 10.04.15 15.95 1.12 18.96 1.84l-1.55 4.37s-3.27 9 12.14 7.06c9.98-1.25 15.96-1.11 19.03-.82l-.93 4.54s-1.99 9.36 13.01 5.3c9.71-2.63 15.65-3.32 18.73-3.46l-.29 4.62s-.67 9.55 13.62 3.44c9.25-3.95 15.03-5.46 18.07-6.03l.36 4.62s.67 9.55 13.97 1.51c8.61-5.2 14.12-7.5 17.05-8.49l1 4.52s1.99 9.36 14.04-.45c7.8-6.35 12.95-9.39 15.71-10.78l1.62 4.34s3.28 9 13.84-2.4c6.84-7.37 11.51-11.1 14.05-12.86l2.21 4.07s4.5 8.46 13.37-4.3c5.75-8.25 9.85-12.6 12.13-14.69l2.75 3.73s3.01 4.13 7.38.93c-.69-71.31-5.7-141.33-10.5-204.09z" opacity=".18"/><path fill="url(#a)" d="m378.36 242.14 40.07 3.89s8.72.92 3.58-12.35c-5.13-13.27-5.2-18.83-5.17-19.15-14.53-1.53-35.22-3.38-35.22-3.38l-3.26 30.99z"/><path fill="url(#b)" d="m381.09 218.49 40.21-1.73s8.76-.3 1.83-12.73-7.77-17.92-7.78-18.24c-14.6.51-35.35 1.56-35.35 1.56l1.09 31.14z"/><path fill="url(#c)" d="m251.91 48.47 5.28-39.9s1.22-8.68-12.22-4.01c-13.44 4.67-19 4.54-19.32 4.5-2.03 14.47-4.6 35.08-4.6 35.08l30.86 4.34z"/><path fill="url(#d)" d="m228.37 44.92-.33-40.25s0-8.76-12.66-2.27-18.18 7.14-18.5 7.14c0 14.61.32 35.38.32 35.38h31.16z"/><path fill="url(#e)" d="m204.57 44.68-5.92-39.81s-1.22-8.68-12.85-.49c-11.63 8.19-17.01 9.6-17.33 9.65 2.03 14.47 5.25 34.99 5.25 34.99l30.86-4.34z"/><path fill="url(#f)" d="m180.96 47.75-11.41-38.6s-2.42-8.43-12.79 1.31c-10.38 9.73-15.51 11.87-15.82 11.96 4.03 14.04 10.07 33.92 10.07 33.92l29.96-8.59z"/><path fill="url(#g)" d="m158.01 54.09-16.67-36.64s-3.56-8.01-12.49 3.07c-8.92 11.08-13.7 13.92-14 14.05 5.94 13.34 14.69 32.19 14.69 32.19l28.47-12.67z"/><path fill="url(#h)" d="m136.16 63.55-21.61-33.96s-4.64-7.43-11.94 4.78C95.32 46.58 90.98 50.06 90.7 50.23c7.74 12.39 19.02 29.83 19.02 29.83l26.43-16.51z"/><path fill="url(#i)" d="M115.85 75.96 89.73 45.33s-5.64-6.71-11.16 6.4c-5.52 13.11-9.33 17.16-9.58 17.36 9.39 11.19 22.99 26.9 22.99 26.9l23.87-20.03z"/><path fill="url(#j)" d="M97.46 91.08 67.33 64.39s-6.51-5.86-10.16 7.89c-3.65 13.75-6.86 18.29-7.07 18.53 10.85 9.77 26.51 23.44 26.51 23.44l20.85-23.16z"/><path fill="url(#k)" d="M81.35 108.61 47.8 86.37s-7.27-4.9-8.97 9.23c-1.69 14.12-4.24 19.06-4.43 19.33 12.11 8.17 29.51 19.52 29.51 19.52l17.43-25.83z"/><path fill="url(#l)" d="m67.84 128.21-36.32-17.35s-7.88-3.84-7.59 10.38c.29 14.22-1.55 19.47-1.69 19.76 13.13 6.4 31.94 15.22 31.94 15.22l13.66-28.01z"/><path fill="url(#m)" d="m57.19 149.5-38.38-12.13s-8.34-2.71-6.07 11.34c2.26 14.05 1.17 19.49 1.07 19.8 13.89 4.51 33.75 10.62 33.75 10.62l9.63-29.64z"/><path fill="url(#n)" d="m49.61 172.07-39.7-6.67s-8.63-1.52-4.43 12.07c4.2 13.59 3.88 19.14 3.82 19.46 14.38 2.54 34.9 5.82 34.9 5.82l5.42-30.69z"/><path fill="url(#o)" d="m45.23 195.47-40.24-1.08s-8.76-.31-2.71 12.57 6.5 18.42 6.49 18.74c14.6.51 35.37.91 35.37.91l1.09-31.14z"/><path fill="url(#p)" d="m44.16 219.26-40 4.53s-8.72.92-.94 12.83c7.78 11.91 9 17.33 9.04 17.65 14.52-1.53 35.15-4.02 35.15-4.02l-3.26-30.99z"/><path fill="url(#q)" d="M46.41 242.95 7.43 253s-8.5 2.12.86 12.83 11.33 15.91 11.41 16.23c14.17-3.53 34.25-8.87 34.25-8.87l-7.54-30.24z"/><path fill="url(#r)" d="m51.94 266.11-37.2 15.38s-8.13 3.28 2.63 12.59c10.76 9.31 13.43 14.18 13.55 14.48C44.47 303.09 63.61 295 63.61 295l-11.67-28.89z"/><path fill="url(#s)" d="m60.63 288.27-34.69 20.41s-7.59 4.38 4.36 12.1 15.27 12.17 15.43 12.45c12.65-7.3 30.48-17.97 30.48-17.97l-15.58-26.99z"/><path fill="url(#t)" d="m72.33 309.01-31.52 25.04s-6.91 5.4 6 11.38 16.82 9.93 17.02 10.19c11.51-8.99 27.68-22.04 27.68-22.04l-19.18-24.56z"/><path fill="url(#u)" d="M86.8 327.92 59.07 357.1s-6.09 6.3 7.53 10.43c13.62 4.12 18.03 7.49 18.27 7.72 10.14-10.51 24.34-25.68 24.34-25.68l-22.42-21.64z"/><path fill="url(#v)" d="m103.75 344.62-23.4 32.76s-5.15 7.09 8.91 9.28c14.05 2.18 18.9 4.91 19.17 5.1 8.58-11.82 20.53-28.82 20.53-28.82l-25.21-18.32z"/><path fill="url(#w)" d="m122.87 358.81-18.61 35.7s-4.11 7.74 10.11 7.95c14.23.21 19.41 2.23 19.69 2.38 6.86-12.9 16.32-31.39 16.32-31.39l-27.52-14.63z"/><path fill="url(#x)" d="m143.78 370.2-13.46 37.94s-3 8.24 11.12 6.46c14.12-1.77 19.52-.49 19.83-.38 4.99-13.73 11.8-33.36 11.8-33.36l-29.28-10.66z"/><path fill="url(#y)" d="m166.07 378.57-8.05 39.44s-1.82 8.57 11.91 4.85c13.73-3.72 19.27-3.2 19.58-3.14 3.04-14.29 7.04-34.67 7.04-34.67l-30.48-6.48z"/><path fill="url(#z)" d="m189.3 383.75-2.49 40.18s-.61 8.74 12.47 3.15 18.64-5.85 18.96-5.83c1.02-14.58 2.15-35.32 2.15-35.32l-31.09-2.17z"/><path fill="url(#A)" d="m213.04 385.65 3.13 40.13s.61 8.75 12.79 1.38c12.17-7.36 17.64-8.39 17.96-8.41-1.02-14.58-2.79-35.28-2.79-35.28l-31.09 2.17z"/><path fill="url(#B)" d="m236.8 384.23 8.68 39.3s1.82 8.57 12.86-.41 16.3-10.76 16.61-10.83c-3.04-14.29-7.67-34.54-7.67-34.54l-30.48 6.48z"/><path fill="url(#C)" d="m260.13 379.51 14.07 37.71s3 8.24 12.68-2.2c9.67-10.43 14.64-12.93 14.94-13.04-4.99-13.73-12.4-33.14-12.4-33.14l-29.28 10.66z"/><path fill="url(#D)" d="m282.59 371.6 19.18 35.39s4.12 7.74 12.25-3.94c8.13-11.67 12.7-14.83 12.98-14.99-6.86-12.9-16.9-31.09-16.9-31.09l-27.52 14.63z"/><path fill="url(#E)" d="m303.72 360.63 23.92 32.38s5.15 7.09 11.58-5.6 10.51-16.46 10.77-16.65c-8.59-11.82-21.06-28.43-21.06-28.43l-25.21 18.31z"/><path fill="url(#F)" d="m323.12 346.83 28.19 28.73s6.09 6.3 10.69-7.16 8.12-17.76 8.35-17.98c-10.15-10.51-24.81-25.23-24.81-25.23l-22.41 21.64z"/><path fill="url(#G)" d="m340.41 330.47 31.91 24.52s6.91 5.4 9.58-8.58c2.68-13.97 5.57-18.72 5.77-18.98-11.51-8.99-28.08-21.53-28.08-21.53l-19.18 24.56z"/><path fill="url(#H)" d="m355.26 311.86 35.02 19.85s7.59 4.38 8.3-9.83c.71-14.21 2.91-19.31 3.07-19.59-12.65-7.3-30.8-17.41-30.8-17.41l-15.58 26.99z"/><path fill="url(#I)" d="m367.37 291.36 37.44 14.78s8.12 3.28 6.85-10.89c-1.28-14.17.19-19.53.31-19.83-13.54-5.47-32.93-12.95-32.93-12.95l-11.67 28.89z"/><path fill="url(#J)" d="m376.51 269.38 39.13 9.42s8.5 2.12 5.27-11.73c-3.24-13.85-2.56-20.73-2.48-21.04-15.52-1.51-35.48-3.35-35.48-3.35l-6.44 26.71z"/><path fill="url(#K)" d="m384.63 198.89 39.58-7.31s8.63-1.52.04-12.86c-8.59-11.34-10.19-16.66-10.25-16.98-14.38 2.54-34.79 6.46-34.79 6.46l5.41 30.69z"/><path fill="url(#L)" d="m380.74 175.41 38.18-12.75s8.34-2.71-1.75-12.74c-10.08-10.03-12.41-15.08-12.51-15.39-13.89 4.52-33.55 11.24-33.55 11.24l9.63 29.64z"/><path fill="url(#M)" d="m373.61 152.69 36.04-17.94s7.88-3.84-3.51-12.37c-11.38-8.53-14.39-13.21-14.53-13.5-13.12 6.41-31.66 15.8-31.66 15.8l13.66 28.01z"/><path fill="url(#N)" d="m363.39 131.19 33.19-22.78s7.27-4.9-5.2-11.77c-12.46-6.87-16.08-11.08-16.26-11.35-12.11 8.17-29.15 20.05-29.15 20.05l17.42 25.83z"/><path fill="url(#O)" d="m350.28 111.32 29.69-27.17s6.52-5.87-6.78-10.93-17.47-8.73-17.69-8.97c-10.86 9.77-26.08 23.92-26.08 23.92l20.85 23.16z"/><path fill="url(#P)" d="m334.52 93.47 25.62-31.04s5.64-6.71-8.24-9.88c-13.87-3.17-18.51-6.21-18.77-6.42-9.39 11.19-22.49 27.31-22.49 27.31l23.87 20.03z"/><path fill="url(#Q)" d="m316.44 77.98 21.05-34.3s4.64-7.43-9.53-8.64c-14.18-1.2-19.2-3.58-19.48-3.75-7.73 12.39-18.47 30.18-18.47 30.18l26.43 16.51z"/><path fill="url(#R)" d="m296.38 65.16 16.08-36.9s3.57-8.01-10.64-7.23c-14.21.78-19.51-.87-19.81-1-5.94 13.34-14.09 32.45-14.09 32.45l28.47 12.68z"/><path fill="url(#S)" d="m274.73 55.26 10.79-38.78s2.42-8.42-11.54-5.67c-13.96 2.75-17.02 2.05-17.34 1.97-4.02 14.04-8.9 35.11-8.9 35.11l26.99 7.38z"/><path d="M214.03 44.92c-96.97 0-175.58 78.61-175.58 175.58s78.61 175.59 175.58 175.59 175.59-78.61 175.59-175.59S311 44.92 214.03 44.92zm0 326.93c-83.58 0-151.35-67.76-151.35-151.35S130.44 69.15 214.03 69.15s151.35 67.76 151.35 151.35-67.76 151.35-151.35 151.35z" opacity=".19"/><path fill="#dcdcdc" d="M214.03 366.86c-83.58 0-151.35-67.76-151.35-151.35S130.44 64.16 214.03 64.16s151.35 67.76 151.35 151.35-67.76 151.35-151.35 151.35z"/><path fill="#ddd" d="M214.03 359.6c-81.4 0-147.38-65.99-147.38-147.39S132.63 64.82 214.03 64.82s147.39 65.99 147.39 147.39S295.44 359.6 214.03 359.6z"/><path fill="#dedede" d="M214.03 352.33c-79.21 0-143.42-64.21-143.42-143.43S134.82 65.48 214.03 65.48s143.42 64.21 143.42 143.42-64.21 143.43-143.42 143.43z"/><path fill="#dfdfdf" d="M214.03 345.07c-77.02 0-139.46-62.44-139.46-139.47S137.01 66.14 214.03 66.14s139.46 62.44 139.46 139.46-62.44 139.47-139.46 139.47z"/><path fill="#e0e0e0" d="M214.03 337.81c-74.83 0-135.5-60.67-135.5-135.51S139.2 66.8 214.03 66.8s135.5 60.67 135.5 135.5-60.66 135.51-135.5 135.51z"/><path fill="#e1e1e1" d="M214.03 330.55c-72.65 0-131.54-58.89-131.54-131.55S141.38 67.46 214.03 67.46 345.57 126.35 345.57 199s-58.89 131.55-131.54 131.55z"/><path fill="#e2e2e2" d="M214.03 323.28c-70.46 0-127.58-57.12-127.58-127.58S143.57 68.12 214.03 68.12s127.58 57.12 127.58 127.58-57.12 127.58-127.58 127.58z"/><path fill="#e3e3e3" d="M214.03 316.02c-68.27 0-123.62-55.35-123.62-123.62S145.76 68.78 214.03 68.78s123.62 55.34 123.62 123.62-55.34 123.62-123.62 123.62z"/><path fill="#e4e4e4" d="M214.03 308.76c-66.08 0-119.66-53.57-119.66-119.66S147.94 69.44 214.03 69.44s119.66 53.57 119.66 119.66-53.57 119.66-119.66 119.66z"/><path fill="#e5e5e5" d="M214.03 301.5c-63.89 0-115.69-51.8-115.69-115.7s51.8-115.7 115.69-115.7 115.7 51.8 115.7 115.7-51.8 115.7-115.7 115.7z"/><path fill="#e6e6e6" d="M214.03 294.23c-61.71 0-111.73-50.02-111.73-111.74S152.33 70.76 214.03 70.76s111.73 50.02 111.73 111.73-50.02 111.74-111.73 111.74z"/><path fill="#e7e7e7" d="M214.03 286.97c-59.52 0-107.77-48.25-107.77-107.78S154.51 71.42 214.03 71.42 321.8 119.67 321.8 179.19s-48.25 107.78-107.77 107.78z"/><path fill="#e8e8e8" d="M214.03 279.71c-57.33 0-103.81-46.48-103.81-103.82S156.7 72.08 214.03 72.08s103.81 46.48 103.81 103.81-46.48 103.82-103.81 103.82z"/><path fill="#e9e9e9" d="M214.03 272.45c-55.14 0-99.85-44.7-99.85-99.85s44.7-99.85 99.85-99.85 99.85 44.7 99.85 99.85-44.7 99.85-99.85 99.85z"/><path fill="#eaeaea" d="M214.03 265.18c-52.96 0-95.89-42.93-95.89-95.89s42.93-95.89 95.89-95.89 95.89 42.93 95.89 95.89-42.93 95.89-95.89 95.89z"/><path fill="#ebebeb" d="M214.03 257.92c-50.77 0-91.93-41.16-91.93-91.93s41.16-91.93 91.93-91.93 91.93 41.16 91.93 91.93-41.16 91.93-91.93 91.93z"/><path fill="#ececec" d="M214.03 250.66c-48.58 0-87.97-39.38-87.97-87.97s39.38-87.97 87.97-87.97S302 114.1 302 162.69s-39.38 87.97-87.97 87.97z"/><path fill="#ededed" d="M214.03 243.4c-46.39 0-84-37.61-84-84.01s37.61-84 84-84 84.01 37.61 84.01 84-37.61 84.01-84.01 84.01z"/><path fill="#eee" d="M214.03 236.13c-44.21 0-80.04-35.84-80.04-80.05s35.84-80.04 80.04-80.04 80.04 35.84 80.04 80.04-35.84 80.05-80.04 80.05z"/><path fill="#eee" d="M214.03 228.87c-42.02 0-76.08-34.06-76.08-76.09s34.06-76.08 76.08-76.08 76.08 34.06 76.08 76.08-34.06 76.09-76.08 76.09z"/><path fill="#efefef" d="M214.03 221.61c-39.83 0-72.12-32.29-72.12-72.12s32.29-72.12 72.12-72.12 72.12 32.29 72.12 72.12-32.29 72.12-72.12 72.12z"/><path fill="#f0f0f0" d="M214.03 214.35c-37.64 0-68.16-30.52-68.16-68.16s30.52-68.16 68.16-68.16 68.16 30.52 68.16 68.16-30.52 68.16-68.16 68.16z"/><path fill="#f1f1f1" d="M214.03 207.08c-35.45 0-64.2-28.74-64.2-64.2s28.74-64.2 64.2-64.2 64.2 28.74 64.2 64.2-28.74 64.2-64.2 64.2z"/><path fill="#f2f2f2" d="M214.03 199.82c-33.27 0-60.24-26.97-60.24-60.24s26.97-60.24 60.24-60.24 60.24 26.97 60.24 60.24-26.97 60.24-60.24 60.24z"/><path fill="#f3f3f3" d="M214.03 192.56c-31.08 0-56.28-25.2-56.28-56.28S182.95 80 214.03 80s56.28 25.19 56.28 56.28-25.19 56.28-56.28 56.28z"/><path fill="#f4f4f4" d="M214.03 185.3c-28.89 0-52.31-23.42-52.31-52.32s23.42-52.31 52.31-52.31 52.31 23.42 52.31 52.31-23.42 52.32-52.31 52.32z"/><path fill="#f5f5f5" d="M214.03 178.03c-26.7 0-48.35-21.65-48.35-48.36s21.65-48.35 48.35-48.35 48.35 21.65 48.35 48.35-21.65 48.36-48.35 48.36z"/><path fill="#f6f6f6" d="M214.03 170.77c-24.52 0-44.39-19.87-44.39-44.39s19.88-44.39 44.39-44.39 44.39 19.87 44.39 44.39-19.87 44.39-44.39 44.39z"/><path fill="#f7f7f7" d="M214.03 163.51c-22.33 0-40.43-18.1-40.43-40.43s18.1-40.43 40.43-40.43 40.43 18.1 40.43 40.43-18.1 40.43-40.43 40.43z"/><path fill="#f8f8f8" d="M214.03 156.25c-20.14 0-36.47-16.33-36.47-36.47s16.33-36.47 36.47-36.47 36.47 16.33 36.47 36.47-16.33 36.47-36.47 36.47z"/><path fill="#f9f9f9" d="M214.03 148.98c-17.95 0-32.51-14.55-32.51-32.51s14.55-32.51 32.51-32.51 32.51 14.55 32.51 32.51-14.55 32.51-32.51 32.51z"/><path fill="#fafafa" d="M214.03 141.72c-15.77 0-28.55-12.78-28.55-28.55s12.78-28.55 28.55-28.55 28.55 12.78 28.55 28.55-12.78 28.55-28.55 28.55z"/><path fill="#fbfbfb" d="M214.03 134.46c-13.58 0-24.59-11.01-24.59-24.59s11.01-24.58 24.59-24.58 24.59 11.01 24.59 24.58-11.01 24.59-24.59 24.59z"/><path fill="#fcfcfc" d="M214.03 127.19c-11.39 0-20.62-9.23-20.62-20.63s9.23-20.62 20.62-20.62 20.62 9.23 20.62 20.62-9.23 20.63-20.62 20.63z"/><path fill="#fdfdfd" d="M214.03 119.93c-9.2 0-16.66-7.46-16.66-16.66s7.46-16.66 16.66-16.66 16.66 7.46 16.66 16.66-7.46 16.66-16.66 16.66z"/><path fill="#fefefe" d="M214.03 112.67c-7.01 0-12.7-5.69-12.7-12.7s5.69-12.7 12.7-12.7 12.7 5.69 12.7 12.7-5.69 12.7-12.7 12.7z"/><path fill="#fff" d="M214.03 105.41c-4.83 0-8.74-3.91-8.74-8.74s3.91-8.74 8.74-8.74 8.74 3.91 8.74 8.74-3.91 8.74-8.74 8.74z"/><path fill="#fff" d="M214.03 81.86c74.2 0 134.86 57.92 139.27 131.01.17-2.82.27-5.66.27-8.53 0-77.06-62.47-139.54-139.54-139.54-77.06 0-139.54 62.47-139.54 139.54 0 2.86.09 5.71.26 8.53 4.41-73.09 65.07-131.01 139.27-131.01z" opacity=".3"/><path fill="#c8c8c8" d="M214.03 47.59c-92.74 0-167.92 75.18-167.92 167.92s75.18 167.93 167.92 167.93 167.93-75.18 167.93-167.93S306.77 47.59 214.03 47.59zm0 312.66c-79.93 0-144.74-64.8-144.74-144.74s64.8-144.74 144.74-144.74 144.75 64.8 144.75 144.74-64.81 144.74-144.75 144.74z"/><path fill="#e8e8e8" d="M214.03 43.76c-94.85 0-171.75 76.9-171.75 171.75s76.9 171.76 171.75 171.76 171.75-76.9 171.75-171.76-76.9-171.75-171.75-171.75zm0 319.79c-81.76 0-148.04-66.28-148.04-148.05S132.27 67.46 214.03 67.46s148.05 66.28 148.05 148.04-66.29 148.05-148.05 148.05z"/><path fill="#fff" d="M113.75 83.67C191.27 29.62 297.94 48.64 352 126.16c21.68 31.1 31.58 66.89 30.69 102.09 2.98-37.93-6.65-77.09-30.11-110.74-53.85-77.22-160.09-96.16-237.31-42.32-38.8 27.05-62.88 67.34-70.41 110.53 9.17-39.95 32.63-76.75 68.9-102.05z" opacity=".26"/><path d="M127.09 95.86c67.21-46.87 159.69-30.38 206.56 36.84 18.79 26.96 27.38 57.99 26.6 88.51 2.59-32.88-5.76-66.84-26.1-96.01-46.68-66.95-138.8-83.39-205.76-36.7-33.64 23.46-54.52 58.39-61.05 95.83 7.95-34.64 28.29-66.55 59.74-88.47z" opacity=".09"/><path fill="#fff" d="M298.48 337c-67.21 46.87-159.7 30.37-206.57-36.84-18.8-26.97-27.38-57.99-26.6-88.52-2.59 32.89 5.77 66.84 26.1 96.02 46.69 66.95 138.8 83.37 205.76 36.69 33.64-23.46 54.51-58.39 61.04-95.83-7.95 34.63-28.29 66.54-59.74 88.47z" opacity=".16"/><path d="M314.31 347.92c-77.53 54.05-184.19 35.04-238.25-42.49-21.68-31.1-31.58-66.88-30.68-102.08-2.99 37.94 6.65 77.09 30.11 110.74 53.84 77.22 160.09 96.17 237.3 42.33 38.8-27.05 62.88-67.34 70.41-110.53-9.17 39.95-32.62 76.76-68.9 102.04z" opacity=".19"/><path fill="#fff" d="M214.13 147.03c-59.21-.19-107.36 18.01-107.3-1.72.07-19.73 48.19-58.37 107.39-58.18 59.21.2 107.07 39.16 107.01 58.89-.07 19.73-47.9 1.21-107.1 1.01z" opacity=".13"/><path fill="url(#T)" d="M300.67 167.67c-.63-1.5-1.9-2.79-3.8-3.86-1.91-1.08-4.4-1.61-7.49-1.61-2.76 0-5.08.49-6.96 1.47-1.87.97-3.14 2.24-3.8 3.78-.65 1.54-.98 3.91-.98 7.1v11.74c0 2.69.31 4.75.94 6.2s1.85 2.69 3.66 3.74c1.81 1.05 4.42 1.57 7.83 1.57 2.97 0 5.37-.54 7.18-1.63 1.81-1.09 2.99-2.37 3.54-3.84.55-1.48.82-3.66.82-6.56v-11.22c0-3.09-.31-5.38-.94-6.88zm-9.35 20.72c0 1.61-.1 2.62-.29 3.03-.18.42-.64.63-1.36.63-.78 0-1.26-.19-1.45-.57-.19-.37-.28-1.48-.28-3.34v-16.41c0-1.69.1-2.75.3-3.18s.66-.64 1.39-.64c.77 0 1.25.21 1.42.62.18.42.27 1.49.27 3.2v16.66zm-20.88-52.22c-.65-1.5-1.92-2.78-3.83-3.84-1.9-1.06-4.38-1.59-7.44-1.59-2.76 0-5.08.48-6.96 1.45-1.87.96-3.14 2.22-3.8 3.76-.66 1.54-.98 3.92-.98 7.14v11.7c0 2.71.31 4.79.94 6.24.63 1.45 1.85 2.69 3.64 3.72 1.8 1.03 4.41 1.55 7.85 1.55 2.97 0 5.37-.54 7.18-1.63 1.81-1.08 2.99-2.36 3.54-3.82.55-1.46.82-3.65.82-6.58v-11.18c0-3.11-.32-5.42-.96-6.92zm-9.34 20.76c0 1.58-.1 2.59-.3 3.01-.2.43-.65.65-1.35.65-.8 0-1.3-.19-1.48-.56-.19-.38-.29-1.51-.29-3.38v-16.42c0-1.66.11-2.71.33-3.14.21-.42.68-.64 1.4-.64.78 0 1.26.2 1.43.6.18.41.26 1.47.26 3.18v16.7zm39.57 10.74c-.63-1.5-1.9-2.79-3.8-3.86-1.91-1.08-4.4-1.61-7.49-1.61-2.76 0-5.08.49-6.96 1.47-1.87.97-3.14 2.24-3.8 3.78-.65 1.54-.98 3.91-.98 7.1v11.74c0 2.69.31 4.75.94 6.2s1.85 2.69 3.66 3.74c1.81 1.05 4.42 1.57 7.83 1.57 2.97 0 5.37-.54 7.18-1.63 1.81-1.09 2.99-2.37 3.54-3.84.55-1.48.82-3.66.82-6.56v-11.22c0-3.09-.31-5.38-.94-6.88zm-9.35 20.72c0 1.61-.1 2.62-.29 3.03-.18.42-.64.63-1.36.63-.78 0-1.26-.19-1.45-.57-.19-.37-.28-1.48-.28-3.34v-16.41c0-1.69.1-2.75.3-3.18s.66-.64 1.39-.64c.77 0 1.25.21 1.42.62.18.42.27 1.49.27 3.2v16.66zm9.35-20.72c-.63-1.5-1.9-2.79-3.8-3.86-1.91-1.08-4.4-1.61-7.49-1.61-2.76 0-5.08.49-6.96 1.47-1.87.97-3.14 2.24-3.8 3.78-.65 1.54-.98 3.91-.98 7.1v11.74c0 2.69.31 4.75.94 6.2s1.85 2.69 3.66 3.74c1.81 1.05 4.42 1.57 7.83 1.57 2.97 0 5.37-.54 7.18-1.63 1.81-1.09 2.99-2.37 3.54-3.84.55-1.48.82-3.66.82-6.56v-11.22c0-3.09-.31-5.38-.94-6.88zm-9.35 20.72c0 1.61-.1 2.62-.29 3.03-.18.42-.64.63-1.36.63-.78 0-1.26-.19-1.45-.57-.19-.37-.28-1.48-.28-3.34v-16.41c0-1.69.1-2.75.3-3.18s.66-.64 1.39-.64c.77 0 1.25.21 1.42.62.18.42.27 1.49.27 3.2v16.66zm-24.71-56.06c-1.9-1.06-4.38-1.59-7.44-1.59-2.76 0-5.08.48-6.96 1.45-1.87.96-3.14 2.22-3.8 3.76-.66 1.54-.98 3.92-.98 7.14v11.7c0 2.71.31 4.79.94 6.24.63 1.45 1.85 2.69 3.64 3.72 1.8 1.03 4.41 1.55 7.85 1.55 2.97 0 5.37-.54 7.18-1.63 1.81-1.08 2.99-2.36 3.54-3.82.55-1.46.82-3.65.82-6.58v-11.18c0-3.11-.32-5.42-.96-6.92-.65-1.5-1.92-2.78-3.83-3.84zm-5.51 24.6c0 1.58-.1 2.59-.3 3.01-.2.43-.65.65-1.35.65-.8 0-1.3-.19-1.48-.56-.19-.38-.29-1.51-.29-3.38v-16.42c0-1.66.11-2.71.33-3.14.21-.42.68-.64 1.4-.64.78 0 1.26.2 1.43.6.18.41.26 1.47.26 3.18v16.7zm-46.92-81.24c-76.97 0-139.37 62.4-139.37 139.37s62.4 139.37 139.37 139.37 139.37-62.4 139.37-139.37-62.4-139.37-139.37-139.37zM86.49 208.58c3.38-67.59 59.25-121.36 127.69-121.36s124.3 53.77 127.68 121.36H86.49zm210.38-44.77c-1.91-1.08-4.4-1.61-7.49-1.61-2.76 0-5.08.49-6.96 1.47-1.87.97-3.14 2.24-3.8 3.78-.65 1.54-.98 3.91-.98 7.1v11.74c0 2.69.31 4.75.94 6.2s1.85 2.69 3.66 3.74c1.81 1.05 4.42 1.57 7.83 1.57 2.97 0 5.37-.54 7.18-1.63 1.81-1.09 2.99-2.37 3.54-3.84.55-1.48.82-3.66.82-6.56v-11.22c0-3.09-.31-5.38-.94-6.88s-1.9-2.79-3.8-3.86zm-5.55 24.58c0 1.61-.1 2.62-.29 3.03-.18.42-.64.63-1.36.63-.78 0-1.26-.19-1.45-.57-.19-.37-.28-1.48-.28-3.34v-16.41c0-1.69.1-2.75.3-3.18s.66-.64 1.39-.64c.77 0 1.25.21 1.42.62.18.42.27 1.49.27 3.2v16.66zm-24.71-56.06c-1.9-1.06-4.38-1.59-7.44-1.59-2.76 0-5.08.48-6.96 1.45-1.87.96-3.14 2.22-3.8 3.76-.66 1.54-.98 3.92-.98 7.14v11.7c0 2.71.31 4.79.94 6.24.63 1.45 1.85 2.69 3.64 3.72 1.8 1.03 4.41 1.55 7.85 1.55 2.97 0 5.37-.54 7.18-1.63 1.81-1.08 2.99-2.36 3.54-3.82.55-1.46.82-3.65.82-6.58v-11.18c0-3.11-.32-5.42-.96-6.92-.65-1.5-1.92-2.78-3.83-3.84zm-5.51 24.6c0 1.58-.1 2.59-.3 3.01-.2.43-.65.65-1.35.65-.8 0-1.3-.19-1.48-.56-.19-.38-.29-1.51-.29-3.38v-16.42c0-1.66.11-2.71.33-3.14.21-.42.68-.64 1.4-.64.78 0 1.26.2 1.43.6.18.41.26 1.47.26 3.18v16.7z"/><path fill="url(#U)" d="M270.44 136.17c-.65-1.5-1.92-2.78-3.83-3.84-1.9-1.06-4.38-1.59-7.44-1.59-2.76 0-5.08.48-6.96 1.45-1.87.96-3.14 2.22-3.8 3.76-.66 1.54-.98 3.92-.98 7.14v11.7c0 2.71.31 4.79.94 6.24.63 1.45 1.85 2.69 3.64 3.72 1.8 1.03 4.41 1.55 7.85 1.55 2.97 0 5.37-.54 7.18-1.63 1.81-1.08 2.99-2.36 3.54-3.82.55-1.46.82-3.65.82-6.58v-11.18c0-3.11-.32-5.42-.96-6.92zm-9.34 20.76c0 1.58-.1 2.59-.3 3.01-.2.43-.65.65-1.35.65-.8 0-1.3-.19-1.48-.56-.19-.38-.29-1.51-.29-3.38v-16.42c0-1.66.11-2.71.33-3.14.21-.42.68-.64 1.4-.64.78 0 1.26.2 1.43.6.18.41.26 1.47.26 3.18v16.7z"/><path fill="url(#V)" d="M300.67 167.67c-.63-1.5-1.9-2.79-3.8-3.86-1.91-1.08-4.4-1.61-7.49-1.61-2.76 0-5.08.49-6.96 1.47-1.87.97-3.14 2.24-3.8 3.78-.65 1.54-.98 3.91-.98 7.1v11.74c0 2.69.31 4.75.94 6.2s1.85 2.69 3.66 3.74c1.81 1.05 4.42 1.57 7.83 1.57 2.97 0 5.37-.54 7.18-1.63 1.81-1.09 2.99-2.37 3.54-3.84.55-1.48.82-3.66.82-6.56v-11.22c0-3.09-.31-5.38-.94-6.88zm-9.35 20.72c0 1.61-.1 2.62-.29 3.03-.18.42-.64.63-1.36.63-.78 0-1.26-.19-1.45-.57-.19-.37-.28-1.48-.28-3.34v-16.41c0-1.69.1-2.75.3-3.18s.66-.64 1.39-.64c.77 0 1.25.21 1.42.62.18.42.27 1.49.27 3.2v16.66zm-.97-57.65-25.46 67.62h-6.2l25.55-67.62h6.11zm-19.91 5.43c-.65-1.5-1.92-2.78-3.83-3.84-1.9-1.06-4.38-1.59-7.44-1.59-2.76 0-5.08.48-6.96 1.45-1.87.96-3.14 2.22-3.8 3.76-.66 1.54-.98 3.92-.98 7.14v11.7c0 2.71.31 4.79.94 6.24.63 1.45 1.85 2.69 3.64 3.72 1.8 1.03 4.41 1.55 7.85 1.55 2.97 0 5.37-.54 7.18-1.63 1.81-1.08 2.99-2.36 3.54-3.82.55-1.46.82-3.65.82-6.58v-11.18c0-3.11-.32-5.42-.96-6.92zm-9.34 20.76c0 1.58-.1 2.59-.3 3.01-.2.43-.65.65-1.35.65-.8 0-1.3-.19-1.48-.56-.19-.38-.29-1.51-.29-3.38v-16.42c0-1.66.11-2.71.33-3.14.21-.42.68-.64 1.4-.64.78 0 1.26.2 1.43.6.18.41.26 1.47.26 3.18v16.7zm-18.8-13.68c-.5-2.25-1.45-4.28-2.84-6.08-1.39-1.79-3.5-3.31-6.32-4.56-2.81-1.25-6-1.87-9.57-1.87-4.37 0-8.09.9-11.16 2.69-3.07 1.8-5.13 4.19-6.16 7.16-1.03 2.98-1.55 7.46-1.55 13.44v22.73c0 4.59.32 7.93.97 10.04.64 2.1 1.73 4.11 3.26 6.01 1.52 1.91 3.58 3.31 6.15 4.21 2.58.89 5.81 1.34 9.7 1.34 2.95 0 5.61-.43 8-1.28 2.39-.86 4.43-2.27 6.12-4.23 1.69-1.96 2.8-4.06 3.34-6.31.53-2.26.8-5.85.8-10.79v-21.72c0-4.93-.25-8.53-.74-10.78zm-15.51 37.57c0 3.19-.19 5.25-.56 6.16-.38.91-1.17 1.37-2.38 1.37s-1.99-.39-2.35-1.17c-.36-.78-.54-3.06-.54-6.84v-31.78c0-3.35.19-5.49.58-6.42.39-.92 1.19-1.39 2.39-1.39s2.02.44 2.36 1.31c.33.87.5 3.04.5 6.5v32.26zm-72.57-48.83v65.13h-16.26V162.2c0-5.05-.12-8.08-.36-9.09-.24-1.02-.9-1.79-1.99-2.32-1.09-.52-3.51-.78-7.26-.78h-1.61v-7.59c7.86-1.7 13.82-5.17 17.9-10.43h9.58zm43.91 11.26c-.5-2.25-1.45-4.28-2.84-6.08-1.4-1.79-3.5-3.31-6.32-4.56-2.81-1.25-6-1.87-9.57-1.87-4.37 0-8.09.9-11.16 2.69-3.08 1.8-5.13 4.19-6.16 7.16-1.03 2.98-1.55 7.46-1.55 13.44v22.73c0 4.59.32 7.93.97 10.04.64 2.1 1.73 4.11 3.26 6.01 1.52 1.91 3.58 3.31 6.15 4.21 2.57.89 5.81 1.34 9.69 1.34 2.96 0 5.62-.43 8.01-1.28 2.39-.86 4.43-2.27 6.12-4.23 1.69-1.96 2.8-4.06 3.33-6.31.54-2.26.81-5.85.81-10.79v-21.72c0-4.93-.25-8.53-.74-10.78zm-15.51 37.57c0 3.19-.19 5.25-.57 6.16-.37.91-1.16 1.37-2.37 1.37s-1.99-.39-2.35-1.17c-.37-.78-.55-3.06-.55-6.84v-31.78c0-3.35.2-5.49.59-6.42.39-.92 1.18-1.39 2.39-1.39s2.02.44 2.35 1.31c.34.87.51 3.04.51 6.5v32.26z"/><path fill="#ebebeb" d="m213.94 298.99 4.26 8.63 9.52 1.38-6.89 6.72 1.63 9.48-8.52-4.47-8.52 4.47 1.63-9.48-6.89-6.72 9.52-1.38 4.26-8.63zm-25.22 6.2 2.44 4.94 5.45.79-3.94 3.85.93 5.43-4.88-2.56-4.87 2.56.93-5.43-3.95-3.85 5.46-.79 2.43-4.94zm50.44 0 2.44 4.94 5.45.79-3.95 3.85.94 5.43-4.88-2.56-4.88 2.56.93-5.43-3.94-3.85 5.45-.79 2.44-4.94zm-62.06 8.24c0 .87 1.08 1.57-7.09 1.57s-22.52-.7-22.52-1.57 14.34-1.57 22.52-1.57 7.09.7 7.09 1.57zm72.88 0c0 .87-1.08 1.57 7.1 1.57s22.52-.7 22.52-1.57-14.34-1.57-22.52-1.57-7.1.7-7.1 1.57z"/><path fill="#fff" d="M94.11 224.16h6.92l7.3 17.82h.31l7.3-17.82h6.92v26.52h-5.44v-17.26h-.22l-6.86 17.13h-3.7l-6.86-17.2h-.22v17.33h-5.44v-26.52zm57.73 13.26c0 2.89-.55 5.35-1.64 7.38s-2.58 3.58-4.45 4.64c-1.88 1.07-3.99 1.6-6.33 1.6s-4.47-.54-6.35-1.61c-1.87-1.07-3.35-2.62-4.44-4.65-1.09-2.03-1.63-4.48-1.63-7.37s.54-5.35 1.63-7.38 2.57-3.58 4.44-4.64 3.99-1.6 6.35-1.6 4.45.53 6.33 1.6 3.36 2.61 4.45 4.64 1.64 4.49 1.64 7.38zm-5.68 0c0-1.87-.28-3.45-.83-4.74-.56-1.29-1.34-2.26-2.35-2.93-1.01-.66-2.19-1-3.55-1s-2.54.33-3.55 1c-1.01.67-1.79 1.64-2.35 2.93-.56 1.29-.84 2.87-.84 4.74s.28 3.45.84 4.74c.56 1.29 1.34 2.26 2.35 2.93 1.01.67 2.19 1 3.55 1s2.54-.33 3.55-1c1.01-.66 1.79-1.64 2.35-2.93.56-1.29.83-2.87.83-4.74zm32.01-13.26v26.52h-4.84l-11.54-16.69h-.19v16.69h-5.61v-26.52h4.92l11.45 16.68h.23v-16.68h5.58zm4.62 26.52v-26.52h17.87v4.62H188.4v6.32h11.34v4.62H188.4v6.33h12.32v4.62H182.8zm20.79-26.52h6.28l6.05 11.42h.26l6.05-11.42h6.28l-9.67 17.15v9.38h-5.57v-9.38l-9.67-17.15zm36.43 26.52v-26.52h10.62c1.95 0 3.58.29 4.88.87s2.28 1.38 2.94 2.4c.66 1.02.98 2.2.98 3.53 0 1.04-.21 1.94-.62 2.73-.41.78-.98 1.42-1.7 1.92s-1.54.85-2.47 1.06v.26c1.01.04 1.96.33 2.84.85.88.53 1.6 1.26 2.16 2.21.55.95.83 2.07.83 3.37 0 1.41-.35 2.66-1.04 3.76-.69 1.1-1.72 1.97-3.08 2.61-1.36.64-3.03.96-5.01.96h-11.33zm5.6-15.42h4.16c.77 0 1.45-.14 2.05-.41.6-.27 1.08-.66 1.42-1.16.35-.5.52-1.1.52-1.8 0-.96-.34-1.73-1.02-2.32-.68-.59-1.64-.88-2.88-.88h-4.26v6.57zm0 10.83h4.57c1.56 0 2.7-.3 3.42-.9.72-.6 1.07-1.4 1.07-2.4 0-.73-.18-1.38-.53-1.94-.35-.56-.86-1-1.51-1.32-.65-.32-1.43-.48-2.33-.48h-4.7v7.04zm23.07 4.59h-6.01l9.16-26.52h7.23l9.14 26.52h-6.01l-6.64-20.46h-.21l-6.66 20.46zm-.38-10.43h14.19v4.38H268.3v-4.38zm45.24-6.81h-5.67c-.1-.73-.32-1.39-.63-1.96s-.73-1.06-1.23-1.47-1.08-.72-1.73-.93c-.65-.22-1.36-.32-2.12-.32-1.37 0-2.57.34-3.59 1.02s-1.81 1.66-2.37 2.95c-.56 1.29-.84 2.86-.84 4.69s.28 3.48.85 4.77c.57 1.29 1.36 2.26 2.38 2.91 1.02.66 2.2.98 3.54.98.75 0 1.45-.1 2.09-.3.64-.2 1.21-.49 1.72-.87.5-.38.92-.85 1.25-1.4a5.6 5.6 0 0 0 .69-1.89l5.67.03a10.43 10.43 0 0 1-1.09 3.52 10.59 10.59 0 0 1-2.34 3.02c-.98.89-2.15 1.58-3.5 2.1-1.35.51-2.88.77-4.58.77-2.37 0-4.48-.54-6.34-1.61-1.86-1.07-3.33-2.62-4.4-4.65-1.08-2.03-1.61-4.48-1.61-7.37s.54-5.35 1.63-7.38 2.56-3.58 4.43-4.64c1.87-1.07 3.96-1.6 6.29-1.6 1.54 0 2.96.22 4.28.65 1.32.43 2.48 1.06 3.5 1.88a9.76 9.76 0 0 1 2.49 3.02c.64 1.19 1.05 2.56 1.24 4.09zm4.03 17.24v-26.52h5.61v11.69h.35l9.54-11.69h6.72l-9.84 11.88 9.96 14.65h-6.71l-7.27-10.9-2.76 3.37v7.54h-5.61zm-186.19 23.95c-.16-.57-.39-1.07-.69-1.51s-.66-.81-1.08-1.12c-.42-.31-.91-.54-1.45-.71-.54-.16-1.14-.25-1.79-.25-1.22 0-2.3.3-3.22.91s-1.64 1.49-2.16 2.65c-.51 1.16-.77 2.57-.77 4.23s.25 3.08.76 4.25 1.22 2.06 2.15 2.67 2.02.92 3.28.92c1.15 0 2.12-.2 2.94-.61.81-.41 1.44-.99 1.87-1.73.43-.75.65-1.63.65-2.65l1.03.15h-6.17v-3.81h10.01v3.01c0 2.1-.44 3.91-1.33 5.42a8.981 8.981 0 0 1-3.67 3.48c-1.56.81-3.34 1.22-5.35 1.22-2.24 0-4.21-.5-5.91-1.49-1.7-.99-3.02-2.41-3.97-4.24-.95-1.83-1.42-4.01-1.42-6.54 0-1.94.28-3.67.85-5.19.56-1.52 1.36-2.81 2.38-3.87 1.02-1.06 2.21-1.87 3.56-2.42 1.36-.55 2.82-.83 4.4-.83 1.35 0 2.62.2 3.79.59 1.17.39 2.21.95 3.11 1.67.91.72 1.65 1.57 2.23 2.55.58.99.95 2.07 1.11 3.25h-5.14zm23.94-7.74h5.06v15.54c0 1.74-.42 3.27-1.24 4.58-.83 1.31-1.99 2.33-3.48 3.06s-3.22 1.09-5.2 1.09-3.72-.36-5.21-1.09c-1.49-.73-2.64-1.75-3.47-3.06s-1.24-2.83-1.24-4.58v-15.54h5.06V282c0 .91.2 1.72.6 2.43.4.71.97 1.27 1.7 1.67.73.4 1.58.61 2.56.61s1.84-.2 2.56-.61c.73-.41 1.29-.96 1.69-1.67.4-.71.6-1.52.6-2.43v-15.11zm13.34 23.93h-5.42l8.26-23.93h6.52l8.25 23.93h-5.42l-5.99-18.46h-.19l-6.01 18.46zm-.34-9.4h12.8v3.95h-12.8v-3.95zm20.82 9.4v-23.93h9.44c1.81 0 3.35.32 4.63.96s2.26 1.55 2.93 2.72c.67 1.17 1.01 2.55 1.01 4.13s-.34 2.95-1.03 4.09c-.69 1.14-1.68 2.02-2.97 2.62s-2.86.91-4.7.91h-6.32v-4.07h5.5c.97 0 1.77-.13 2.41-.4s1.12-.66 1.43-1.19c.32-.53.47-1.19.47-1.97s-.16-1.46-.47-2.01c-.32-.54-.79-.96-1.44-1.24-.64-.28-1.45-.43-2.42-.43h-3.41v19.79h-5.06zm12.92-10.89 5.95 10.89h-5.58l-5.82-10.89h5.46zm12.8 10.89h-5.42l8.26-23.93h6.52l8.25 23.93h-5.42l-5.99-18.46h-.19l-6.01 18.46zm-.34-9.4h12.8v3.95h-12.8v-3.95zm40.83-14.53v23.93h-4.37l-10.41-15.06h-.17v15.06h-5.06v-23.93h4.44l10.33 15.05h.21v-15.05h5.04zm3.26 4.18v-4.17h19.65v4.17h-7.33v19.76h-5v-19.76h-7.33zm22.9 19.75v-23.93h16.12v4.17h-11.06v5.7h10.23v4.17h-10.23v5.71h11.11v4.17h-16.17zm20.15 0v-23.93h16.12v4.17h-11.06v5.7h10.23v4.17h-10.23v5.71h11.11v4.17h-16.17z"/></svg>